<svg aria-hidden="true" style="position: absolute; width: 0; height: 0; overflow: hidden;" version="1.1" xmlns="http://www.w3.org/2000/svg" xmlns:xlink="http://www.w3.org/1999/xlink">
<defs>
<symbol id="icon-star" viewBox="0 0 34 32">
<path fill="#ffc531" style="fill: var(--color1, #ffc531); stroke: var(--color1, #ffc531)" stroke="#ffc531" stroke-linejoin="miter" stroke-linecap="butt" stroke-miterlimit="4" stroke-width="2.7429" d="M20.319 9.43c0.364 0.689 1.027 1.171 1.795 1.304l8.685 1.5-6.143 6.326c-0.543 0.559-0.796 1.338-0.685 2.109l1.254 8.726-7.911-3.888-0.268-0.114c-0.544-0.193-1.139-0.193-1.683 0l-0.268 0.114-7.913 3.888 1.257-8.726c0.111-0.771-0.142-1.55-0.685-2.109l-6.145-6.326 8.688-1.5c0.768-0.133 1.431-0.614 1.795-1.304l4.114-7.797 4.114 7.797z"></path>
</symbol>
<symbol id="icon-heart-hover" viewBox="0 0 32 32">
<path fill="#54be96" style="fill: var(--color2, #54be96); stroke: var(--color2, #54be96)" stroke="#54be96" stroke-linejoin="round" stroke-linecap="round" stroke-miterlimit="4" stroke-width="2.4615" d="M27.787 6.147c-0.681-0.681-1.49-1.222-2.379-1.591s-1.844-0.559-2.807-0.559-1.917 0.19-2.807 0.559c-0.89 0.369-1.699 0.909-2.38 1.591l-1.413 1.413-1.413-1.413c-1.376-1.376-3.241-2.148-5.187-2.148s-3.811 0.773-5.187 2.148c-1.376 1.376-2.148 3.241-2.148 5.187s0.773 3.811 2.148 5.187l11.787 11.787 11.787-11.787c0.681-0.681 1.222-1.49 1.591-2.38s0.559-1.844 0.559-2.807-0.19-1.917-0.559-2.807c-0.369-0.89-0.909-1.699-1.591-2.38z"></path>
</symbol>
<symbol id="icon-heart" viewBox="0 0 32 32">
<path stroke-linejoin="round" stroke-linecap="round" stroke-miterlimit="4" stroke-width="2.4615" d="M27.787 6.147c-0.681-0.681-1.49-1.222-2.379-1.591s-1.844-0.559-2.807-0.559-1.917 0.19-2.807 0.559c-0.89 0.369-1.699 0.909-2.38 1.591l-1.413 1.413-1.413-1.413c-1.376-1.376-3.241-2.148-5.187-2.148s-3.811 0.773-5.187 2.148c-1.376 1.376-2.148 3.241-2.148 5.187s0.773 3.811 2.148 5.187l11.787 11.787 11.787-11.787c0.681-0.681 1.222-1.49 1.591-2.38s0.559-1.844 0.559-2.807-0.19-1.917-0.559-2.807c-0.369-0.89-0.909-1.699-1.591-2.38z"></path>
</symbol>
<symbol id="icon-R" viewBox="0 0 32 32">
<path fill="#54be96" style="fill: var(--color2, #54be96)" d="M4.267 31.030v-31.030h11.061c2.404 0 4.399 0.414 5.985 1.242 1.596 0.828 2.788 1.975 3.576 3.439 0.788 1.455 1.182 3.136 1.182 5.045 0 1.899-0.399 3.571-1.197 5.015-0.788 1.434-1.98 2.55-3.576 3.348-1.586 0.798-3.581 1.197-5.985 1.197h-8.379v-4.030h7.955c1.515 0 2.747-0.217 3.697-0.652 0.96-0.434 1.662-1.066 2.106-1.894s0.667-1.823 0.667-2.985c0-1.172-0.227-2.187-0.682-3.045-0.444-0.859-1.146-1.515-2.106-1.97-0.949-0.465-2.197-0.697-3.742-0.697h-5.879v27.015h-4.682zM19.585 17.030l7.667 14h-5.333l-7.515-14h5.182z"></path>
</symbol>
<symbol id="icon-eye" viewBox="0 0 32 32">
<path stroke-linejoin="round" stroke-linecap="round" stroke-miterlimit="4" stroke-width="3.2" d="M1.333 16c0 0 5.333-10.667 14.667-10.667s14.667 10.667 14.667 10.667-5.333 10.667-14.667 10.667c-9.333 0-14.667-10.667-14.667-10.667z"></path>
<path stroke-linejoin="round" stroke-linecap="round" stroke-miterlimit="4" stroke-width="3.2" d="M16 20c2.209 0 4-1.791 4-4s-1.791-4-4-4c-2.209 0-4 1.791-4 4s1.791 4 4 4z"></path>
</symbol>
<symbol id="icon-eye-off" viewBox="0 0 32 32">
<path stroke-linejoin="round" stroke-linecap="round" stroke-miterlimit="4" stroke-width="3.2" d="M23.92 23.92c-2.279 1.737-5.054 2.7-7.92 2.747-9.333 0-14.667-10.667-14.667-10.667 1.659-3.091 3.959-5.791 6.747-7.92M13.2 5.653c0.918-0.215 1.857-0.322 2.8-0.32 9.333 0 14.667 10.667 14.667 10.667-0.809 1.514-1.775 2.94-2.88 4.253M18.827 18.827c-0.366 0.393-0.808 0.708-1.298 0.927s-1.020 0.336-1.557 0.346c-0.537 0.009-1.071-0.089-1.569-0.291s-0.95-0.501-1.33-0.88c-0.38-0.38-0.679-0.832-0.88-1.33s-0.3-1.032-0.29-1.569c0.009-0.537 0.127-1.067 0.346-1.558s0.534-0.932 0.927-1.298"></path>
<path stroke-linejoin="round" stroke-linecap="round" stroke-miterlimit="4" stroke-width="3.2" d="M1.333 1.333l29.333 29.333"></path>
</symbol>
<symbol id="icon-user" viewBox="0 0 32 32">
<path fill="#fbfbfb" style="fill: var(--color3, #fbfbfb)" d="M16 5.333c1.415 0 2.771 0.562 3.771 1.562s1.562 2.357 1.562 3.771-0.562 2.771-1.562 3.771c-1 1-2.357 1.562-3.771 1.562s-2.771-0.562-3.771-1.562c-1-1-1.562-2.357-1.562-3.771s0.562-2.771 1.562-3.771c1-1 2.357-1.562 3.771-1.562zM16 18.667c5.893 0 10.667 2.387 10.667 5.333v2.667h-21.333v-2.667c0-2.947 4.773-5.333 10.667-5.333z"></path>
</symbol>
<symbol id="icon-logo-1" viewBox="0 0 249 32">
<path fill="#54be96" style="fill: var(--color2, #54be96)" d="M1.38 26.39v-17.143h3.409v2.094h0.154c0.152-0.335 0.371-0.676 0.657-1.023 0.292-0.352 0.671-0.644 1.136-0.877 0.471-0.238 1.055-0.357 1.753-0.357 0.909 0 1.748 0.238 2.516 0.714 0.768 0.471 1.383 1.182 1.843 2.135 0.46 0.947 0.69 2.135 0.69 3.563 0 1.391-0.225 2.565-0.674 3.523-0.444 0.952-1.050 1.675-1.818 2.167-0.763 0.487-1.618 0.73-2.565 0.73-0.671 0-1.242-0.111-1.713-0.333-0.465-0.222-0.847-0.501-1.144-0.836-0.298-0.341-0.525-0.684-0.682-1.031h-0.106v6.672h-3.458zM4.765 15.481c0 0.741 0.103 1.388 0.308 1.94s0.503 0.982 0.893 1.291c0.39 0.303 0.863 0.454 1.42 0.454 0.563 0 1.039-0.154 1.429-0.463 0.39-0.314 0.685-0.747 0.885-1.299 0.206-0.557 0.308-1.199 0.308-1.924 0-0.72-0.1-1.353-0.3-1.899s-0.495-0.974-0.885-1.282c-0.39-0.308-0.869-0.463-1.437-0.463-0.563 0-1.039 0.149-1.429 0.447-0.384 0.298-0.679 0.72-0.885 1.266s-0.308 1.191-0.308 1.932zM25.76 12.802l-3.166 0.195c-0.054-0.271-0.171-0.514-0.349-0.73-0.179-0.222-0.414-0.398-0.706-0.528-0.287-0.135-0.631-0.203-1.031-0.203-0.536 0-0.988 0.114-1.356 0.341-0.368 0.222-0.552 0.52-0.552 0.893 0 0.298 0.119 0.549 0.357 0.755s0.647 0.371 1.226 0.495l2.256 0.455c1.212 0.249 2.116 0.649 2.711 1.201s0.893 1.277 0.893 2.175c0 0.817-0.241 1.534-0.722 2.151-0.476 0.617-1.131 1.099-1.964 1.445-0.828 0.341-1.783 0.511-2.865 0.511-1.651 0-2.965-0.344-3.945-1.031-0.974-0.693-1.545-1.634-1.713-2.825l3.401-0.179c0.103 0.503 0.352 0.888 0.747 1.153 0.395 0.26 0.901 0.39 1.518 0.39 0.606 0 1.093-0.116 1.461-0.349 0.373-0.238 0.563-0.544 0.568-0.917-0.005-0.314-0.138-0.571-0.398-0.771-0.26-0.206-0.66-0.363-1.201-0.471l-2.159-0.43c-1.218-0.243-2.124-0.665-2.719-1.266-0.59-0.601-0.885-1.366-0.885-2.297 0-0.801 0.216-1.491 0.649-2.070 0.438-0.579 1.052-1.025 1.843-1.339 0.795-0.314 1.726-0.471 2.792-0.471 1.575 0 2.814 0.333 3.718 0.998 0.909 0.666 1.439 1.572 1.591 2.719zM29.899 26.39c-0.438 0-0.85-0.035-1.234-0.105-0.379-0.065-0.693-0.149-0.942-0.252l0.779-2.581c0.406 0.124 0.771 0.192 1.096 0.203 0.33 0.011 0.614-0.065 0.852-0.227 0.243-0.162 0.441-0.438 0.592-0.828l0.203-0.528-4.472-12.825h3.636l2.581 9.156h0.13l2.605-9.156h3.661l-4.846 13.815c-0.233 0.671-0.549 1.255-0.95 1.753-0.395 0.503-0.896 0.89-1.502 1.161-0.606 0.276-1.337 0.414-2.192 0.414zM45.932 21.958c-1.277 0-2.376-0.271-3.296-0.812-0.914-0.547-1.618-1.304-2.11-2.273-0.487-0.969-0.73-2.083-0.73-3.344 0-1.277 0.246-2.397 0.739-3.36 0.498-0.969 1.204-1.723 2.118-2.265 0.914-0.547 2.002-0.82 3.263-0.82 1.088 0 2.040 0.198 2.857 0.593s1.464 0.95 1.94 1.664 0.739 1.553 0.787 2.516h-3.263c-0.092-0.622-0.335-1.123-0.73-1.502-0.39-0.384-0.901-0.576-1.534-0.576-0.536 0-1.004 0.146-1.404 0.438-0.395 0.287-0.703 0.706-0.925 1.258s-0.333 1.22-0.333 2.005c0 0.795 0.108 1.472 0.325 2.029 0.222 0.557 0.533 0.982 0.934 1.274s0.868 0.438 1.404 0.438c0.395 0 0.749-0.081 1.063-0.244 0.319-0.162 0.582-0.398 0.787-0.706 0.211-0.314 0.349-0.69 0.414-1.128h3.263c-0.054 0.952-0.314 1.791-0.779 2.516-0.46 0.72-1.096 1.282-1.907 1.688s-1.772 0.609-2.882 0.609zM56.714 14.507v7.208h-3.458v-16.623h3.36v6.355h0.146c0.281-0.736 0.736-1.312 1.364-1.729 0.628-0.422 1.415-0.633 2.362-0.633 0.866 0 1.621 0.189 2.265 0.568 0.649 0.373 1.153 0.912 1.51 1.615 0.362 0.698 0.541 1.534 0.536 2.508v7.938h-3.458v-7.321c0.005-0.768-0.189-1.366-0.584-1.794-0.39-0.427-0.936-0.641-1.64-0.641-0.471 0-0.887 0.1-1.25 0.3-0.357 0.2-0.639 0.492-0.844 0.877-0.2 0.379-0.303 0.836-0.308 1.372zM72.696 21.958c-1.261 0-2.351-0.268-3.271-0.804-0.915-0.541-1.621-1.293-2.118-2.256-0.498-0.969-0.747-2.091-0.747-3.368 0-1.288 0.249-2.414 0.747-3.377 0.498-0.969 1.204-1.721 2.118-2.256 0.92-0.541 2.010-0.812 3.271-0.812s2.348 0.271 3.263 0.812c0.92 0.536 1.629 1.288 2.127 2.256 0.498 0.963 0.747 2.089 0.747 3.377 0 1.277-0.249 2.4-0.747 3.368-0.498 0.963-1.207 1.715-2.127 2.256-0.915 0.536-2.002 0.804-3.263 0.804zM72.712 19.279c0.574 0 1.053-0.162 1.437-0.487 0.384-0.33 0.674-0.779 0.869-1.347 0.2-0.568 0.3-1.215 0.3-1.94s-0.1-1.372-0.3-1.94c-0.195-0.568-0.484-1.017-0.869-1.347s-0.863-0.495-1.437-0.495c-0.579 0-1.066 0.165-1.461 0.495-0.39 0.33-0.684 0.779-0.885 1.347-0.195 0.568-0.292 1.215-0.292 1.94s0.097 1.372 0.292 1.94c0.2 0.568 0.495 1.017 0.885 1.347 0.395 0.325 0.882 0.487 1.461 0.487zM84.081 5.091v16.623h-3.458v-16.623h3.458zM92.027 21.958c-1.261 0-2.351-0.268-3.271-0.804-0.914-0.541-1.621-1.293-2.118-2.256-0.498-0.969-0.747-2.091-0.747-3.368 0-1.288 0.249-2.414 0.747-3.377 0.498-0.969 1.204-1.721 2.118-2.256 0.92-0.541 2.010-0.812 3.271-0.812s2.348 0.271 3.263 0.812c0.92 0.536 1.629 1.288 2.127 2.256 0.498 0.963 0.747 2.089 0.747 3.377 0 1.277-0.249 2.4-0.747 3.368-0.498 0.963-1.207 1.715-2.127 2.256-0.915 0.536-2.002 0.804-3.263 0.804zM92.044 19.279c0.574 0 1.052-0.162 1.437-0.487 0.384-0.33 0.674-0.779 0.868-1.347 0.2-0.568 0.3-1.215 0.3-1.94s-0.1-1.372-0.3-1.94c-0.195-0.568-0.484-1.017-0.868-1.347s-0.863-0.495-1.437-0.495c-0.579 0-1.066 0.165-1.461 0.495-0.39 0.33-0.685 0.779-0.885 1.347-0.195 0.568-0.292 1.215-0.292 1.94s0.097 1.372 0.292 1.94c0.2 0.568 0.495 1.017 0.885 1.347 0.395 0.325 0.882 0.487 1.461 0.487zM105.572 26.649c-1.12 0-2.081-0.154-2.882-0.463-0.795-0.303-1.429-0.717-1.899-1.242s-0.776-1.115-0.917-1.77l3.198-0.43c0.097 0.249 0.252 0.482 0.463 0.698s0.49 0.39 0.836 0.519c0.352 0.135 0.779 0.203 1.282 0.203 0.752 0 1.372-0.184 1.859-0.552 0.492-0.363 0.739-0.971 0.739-1.826v-2.281h-0.146c-0.152 0.346-0.379 0.674-0.682 0.982s-0.693 0.56-1.169 0.755c-0.476 0.195-1.044 0.292-1.705 0.292-0.936 0-1.788-0.216-2.557-0.649-0.763-0.438-1.372-1.107-1.826-2.005-0.449-0.904-0.674-2.046-0.674-3.425 0-1.412 0.23-2.592 0.69-3.539s1.071-1.656 1.834-2.127c0.768-0.471 1.61-0.706 2.524-0.706 0.698 0 1.282 0.119 1.753 0.357 0.471 0.233 0.85 0.525 1.136 0.877 0.292 0.346 0.517 0.687 0.674 1.023h0.13v-2.094h3.433v12.589c0 1.061-0.26 1.948-0.779 2.662s-1.239 1.25-2.159 1.607c-0.915 0.363-1.967 0.544-3.157 0.544zM105.645 18.938c0.557 0 1.028-0.138 1.412-0.414 0.39-0.281 0.687-0.682 0.893-1.201 0.211-0.525 0.316-1.153 0.316-1.883s-0.103-1.364-0.308-1.899c-0.206-0.541-0.503-0.96-0.893-1.258s-0.863-0.447-1.42-0.447c-0.568 0-1.047 0.154-1.437 0.463-0.39 0.303-0.685 0.725-0.885 1.266s-0.3 1.166-0.3 1.875c0 0.72 0.1 1.342 0.3 1.867 0.206 0.519 0.5 0.923 0.885 1.209 0.39 0.281 0.868 0.422 1.437 0.422zM113.962 21.714v-12.468h3.457v12.468h-3.457zM115.699 7.64c-0.514 0-0.955-0.17-1.323-0.511-0.363-0.346-0.544-0.76-0.544-1.242 0-0.476 0.181-0.885 0.544-1.226 0.368-0.346 0.809-0.519 1.323-0.519 0.513 0 0.952 0.173 1.314 0.519 0.368 0.341 0.552 0.749 0.552 1.226 0 0.482-0.184 0.896-0.552 1.242-0.362 0.341-0.801 0.511-1.314 0.511zM130.106 12.802l-3.166 0.195c-0.055-0.271-0.17-0.514-0.35-0.73-0.178-0.222-0.414-0.398-0.705-0.528-0.287-0.135-0.631-0.203-1.031-0.203-0.536 0-0.989 0.114-1.357 0.341-0.368 0.222-0.552 0.52-0.552 0.893 0 0.298 0.12 0.549 0.358 0.755s0.647 0.371 1.225 0.495l2.257 0.455c1.211 0.249 2.115 0.649 2.711 1.201s0.893 1.277 0.893 2.175c0 0.817-0.24 1.534-0.722 2.151-0.477 0.617-1.13 1.099-1.965 1.445-0.827 0.341-1.783 0.511-2.865 0.511-1.65 0-2.965-0.344-3.944-1.031-0.975-0.693-1.545-1.634-1.713-2.825l3.401-0.179c0.103 0.503 0.352 0.888 0.746 1.153 0.395 0.26 0.902 0.39 1.518 0.39 0.607 0 1.094-0.116 1.462-0.349 0.374-0.238 0.562-0.544 0.568-0.917-0.006-0.314-0.138-0.571-0.398-0.771-0.259-0.206-0.661-0.363-1.201-0.471l-2.159-0.43c-1.218-0.243-2.125-0.665-2.72-1.266-0.59-0.601-0.885-1.366-0.885-2.297 0-0.801 0.217-1.491 0.649-2.070 0.439-0.579 1.053-1.025 1.843-1.339 0.795-0.314 1.726-0.471 2.792-0.471 1.575 0 2.814 0.333 3.718 0.998 0.909 0.666 1.439 1.572 1.591 2.719zM138.742 9.247v2.597h-7.509v-2.597h7.509zM132.938 6.26h3.457v11.623c0 0.319 0.049 0.568 0.146 0.747 0.098 0.173 0.233 0.295 0.406 0.365 0.179 0.070 0.385 0.106 0.617 0.106 0.162 0 0.325-0.014 0.487-0.041 0.162-0.033 0.287-0.057 0.374-0.073l0.544 2.573c-0.174 0.054-0.417 0.116-0.73 0.187-0.314 0.076-0.696 0.122-1.145 0.138-0.833 0.033-1.563-0.078-2.191-0.333-0.623-0.254-1.107-0.649-1.454-1.185s-0.517-1.212-0.511-2.029v-12.078zM150.754 12.802l-3.166 0.195c-0.054-0.271-0.17-0.514-0.349-0.73-0.179-0.222-0.415-0.398-0.706-0.528-0.287-0.135-0.631-0.203-1.031-0.203-0.536 0-0.987 0.114-1.355 0.341-0.368 0.222-0.552 0.52-0.552 0.893 0 0.298 0.119 0.549 0.357 0.755s0.647 0.371 1.226 0.495l2.256 0.455c1.213 0.249 2.115 0.649 2.711 1.201s0.893 1.277 0.893 2.175c0 0.817-0.24 1.534-0.722 2.151-0.475 0.617-1.13 1.099-1.963 1.445-0.829 0.341-1.784 0.511-2.866 0.511-1.65 0-2.965-0.344-3.944-1.031-0.974-0.693-1.545-1.634-1.713-2.825l3.401-0.179c0.103 0.503 0.352 0.888 0.746 1.153 0.395 0.26 0.902 0.39 1.519 0.39 0.606 0 1.093-0.116 1.461-0.349 0.374-0.238 0.562-0.544 0.568-0.917-0.006-0.314-0.138-0.571-0.398-0.771-0.259-0.206-0.659-0.363-1.201-0.471l-2.159-0.43c-1.218-0.243-2.125-0.665-2.719-1.266-0.591-0.601-0.886-1.366-0.886-2.297 0-0.801 0.217-1.491 0.65-2.070 0.438-0.579 1.053-1.025 1.842-1.339 0.795-0.314 1.726-0.471 2.792-0.471 1.575 0 2.814 0.333 3.718 0.998 0.909 0.666 1.439 1.572 1.591 2.719zM154.609 21.868c-0.443 0-0.825-0.157-1.144-0.471-0.32-0.319-0.479-0.703-0.479-1.153 0-0.444 0.159-0.823 0.479-1.136 0.319-0.319 0.701-0.479 1.144-0.479s0.825 0.16 1.144 0.479c0.32 0.314 0.479 0.693 0.479 1.136 0 0.298-0.075 0.571-0.226 0.82-0.146 0.244-0.342 0.438-0.585 0.584s-0.514 0.219-0.811 0.219z"></path>
<path fill="#191a15" style="fill: var(--color4, #191a15)" d="M168.758 12.542l-2.678 0.292c-0.077-0.271-0.209-0.525-0.398-0.763-0.184-0.238-0.433-0.43-0.747-0.576-0.313-0.146-0.697-0.219-1.152-0.219-0.611 0-1.126 0.133-1.543 0.398-0.41 0.265-0.614 0.609-0.608 1.031-0.006 0.363 0.127 0.658 0.398 0.885 0.275 0.227 0.73 0.414 1.363 0.56l2.127 0.454c1.179 0.254 2.056 0.658 2.63 1.209 0.578 0.552 0.871 1.274 0.877 2.167-0.006 0.785-0.235 1.477-0.69 2.078-0.449 0.595-1.074 1.061-1.874 1.396-0.801 0.336-1.721 0.503-2.76 0.503-1.526 0-2.754-0.319-3.686-0.958-0.93-0.644-1.485-1.54-1.664-2.687l2.865-0.276c0.13 0.563 0.407 0.988 0.829 1.274s0.971 0.43 1.648 0.43c0.697 0 1.258-0.143 1.68-0.43 0.427-0.287 0.641-0.641 0.641-1.063 0-0.357-0.138-0.652-0.414-0.885-0.271-0.233-0.693-0.411-1.266-0.536l-2.127-0.446c-1.195-0.249-2.081-0.668-2.654-1.258-0.574-0.595-0.858-1.347-0.853-2.257-0.006-0.768 0.202-1.434 0.625-1.997 0.427-0.568 1.019-1.006 1.777-1.315 0.763-0.314 1.642-0.471 2.638-0.471 1.462 0 2.611 0.311 3.45 0.933 0.843 0.622 1.366 1.464 1.566 2.524zM176.511 21.958c-1.249 0-2.329-0.26-3.238-0.779-0.904-0.525-1.6-1.266-2.087-2.224-0.487-0.963-0.73-2.097-0.73-3.401 0-1.283 0.243-2.408 0.73-3.377 0.493-0.974 1.181-1.732 2.062-2.273 0.882-0.547 1.919-0.82 3.109-0.82 0.769 0 1.494 0.124 2.176 0.373 0.687 0.243 1.294 0.622 1.818 1.136 0.53 0.514 0.946 1.169 1.25 1.964 0.303 0.79 0.454 1.732 0.454 2.825v0.901h-10.218v-1.981h7.402c-0.006-0.563-0.127-1.063-0.366-1.502-0.238-0.444-0.57-0.793-0.998-1.047-0.423-0.254-0.915-0.382-1.478-0.382-0.601 0-1.128 0.146-1.583 0.438-0.455 0.287-0.809 0.666-1.063 1.136-0.249 0.465-0.376 0.977-0.382 1.534v1.729c0 0.725 0.133 1.347 0.398 1.867 0.265 0.514 0.635 0.909 1.112 1.185 0.477 0.271 1.033 0.406 1.672 0.406 0.427 0 0.815-0.060 1.161-0.178 0.346-0.124 0.646-0.306 0.901-0.544 0.254-0.238 0.447-0.533 0.576-0.885l2.744 0.308c-0.174 0.725-0.504 1.358-0.991 1.899-0.481 0.536-1.098 0.952-1.85 1.25-0.752 0.292-1.613 0.438-2.582 0.438zM184.083 21.714v-12.468h2.849v2.078h0.13c0.227-0.72 0.617-1.274 1.169-1.664 0.557-0.395 1.193-0.593 1.907-0.593 0.162 0 0.343 0.008 0.544 0.024 0.205 0.011 0.376 0.030 0.511 0.057v2.703c-0.125-0.043-0.322-0.081-0.593-0.114-0.265-0.038-0.521-0.057-0.77-0.057-0.536 0-1.017 0.116-1.445 0.349-0.423 0.227-0.755 0.544-0.999 0.95s-0.366 0.874-0.366 1.404v7.33h-2.938zM204.205 9.247l-4.44 12.468h-3.246l-4.44-12.468h3.133l2.865 9.261h0.13l2.873-9.261h3.125zM205.782 21.714v-12.468h2.938v12.468h-2.938zM207.258 7.477c-0.465 0-0.865-0.154-1.201-0.463-0.336-0.314-0.503-0.69-0.503-1.128 0-0.444 0.167-0.82 0.503-1.128 0.336-0.314 0.736-0.471 1.201-0.471 0.471 0 0.871 0.157 1.201 0.471 0.336 0.308 0.504 0.685 0.504 1.128 0 0.438-0.168 0.814-0.504 1.128-0.33 0.308-0.73 0.463-1.201 0.463zM216.722 21.958c-1.245 0-2.313-0.273-3.207-0.82-0.887-0.547-1.571-1.301-2.053-2.265-0.477-0.969-0.714-2.083-0.714-3.344 0-1.266 0.243-2.384 0.73-3.352 0.487-0.974 1.174-1.732 2.062-2.273 0.893-0.547 1.947-0.82 3.166-0.82 1.011 0 1.907 0.187 2.687 0.56 0.784 0.368 1.409 0.89 1.874 1.567 0.465 0.671 0.73 1.456 0.795 2.354h-2.808c-0.114-0.601-0.384-1.101-0.811-1.502-0.423-0.406-0.989-0.609-1.697-0.609-0.6 0-1.128 0.162-1.583 0.487-0.454 0.319-0.809 0.779-1.063 1.38-0.249 0.601-0.374 1.32-0.374 2.159 0 0.85 0.125 1.58 0.374 2.192 0.249 0.606 0.598 1.074 1.047 1.404 0.455 0.325 0.987 0.487 1.599 0.487 0.433 0 0.821-0.081 1.161-0.244 0.346-0.168 0.635-0.409 0.869-0.722 0.232-0.314 0.392-0.695 0.479-1.144h2.808c-0.070 0.882-0.33 1.664-0.779 2.346-0.449 0.676-1.061 1.207-1.834 1.591-0.774 0.379-1.682 0.568-2.727 0.568zM229.538 21.958c-1.25 0-2.329-0.26-3.239-0.779-0.904-0.525-1.599-1.266-2.086-2.224-0.487-0.963-0.73-2.097-0.73-3.401 0-1.283 0.243-2.408 0.73-3.377 0.493-0.974 1.179-1.732 2.062-2.273 0.882-0.547 1.918-0.82 3.109-0.82 0.768 0 1.494 0.124 2.175 0.373 0.688 0.243 1.294 0.622 1.818 1.136 0.53 0.514 0.947 1.169 1.25 1.964 0.303 0.79 0.455 1.732 0.455 2.825v0.901h-10.219v-1.981h7.402c-0.005-0.563-0.127-1.063-0.365-1.502-0.239-0.444-0.571-0.793-0.999-1.047-0.422-0.254-0.914-0.382-1.478-0.382-0.6 0-1.128 0.146-1.582 0.438-0.455 0.287-0.809 0.666-1.064 1.136-0.249 0.465-0.376 0.977-0.382 1.534v1.729c0 0.725 0.133 1.347 0.398 1.867 0.265 0.514 0.637 0.909 1.112 1.185 0.477 0.271 1.034 0.406 1.672 0.406 0.427 0 0.815-0.060 1.161-0.178 0.346-0.124 0.647-0.306 0.901-0.544 0.255-0.238 0.447-0.533 0.577-0.885l2.743 0.308c-0.173 0.725-0.503 1.358-0.99 1.899-0.482 0.536-1.098 0.952-1.851 1.25-0.752 0.292-1.613 0.438-2.581 0.438zM246.965 12.542l-2.679 0.292c-0.075-0.271-0.208-0.525-0.398-0.763-0.184-0.238-0.433-0.43-0.746-0.576-0.314-0.146-0.698-0.219-1.153-0.219-0.611 0-1.126 0.133-1.542 0.398-0.411 0.265-0.615 0.609-0.609 1.031-0.006 0.363 0.127 0.658 0.398 0.885 0.277 0.227 0.73 0.414 1.363 0.56l2.127 0.454c1.179 0.254 2.056 0.658 2.63 1.209 0.579 0.552 0.872 1.274 0.877 2.167-0.005 0.785-0.235 1.477-0.689 2.078-0.449 0.595-1.074 1.061-1.875 1.396s-1.721 0.503-2.76 0.503c-1.526 0-2.754-0.319-3.685-0.958-0.931-0.644-1.486-1.54-1.664-2.687l2.865-0.276c0.13 0.563 0.406 0.988 0.827 1.274 0.423 0.287 0.971 0.43 1.648 0.43 0.698 0 1.258-0.143 1.68-0.43 0.427-0.287 0.641-0.641 0.641-1.063 0-0.357-0.137-0.652-0.414-0.885-0.271-0.233-0.693-0.411-1.266-0.536l-2.127-0.446c-1.195-0.249-2.080-0.668-2.654-1.258-0.574-0.595-0.857-1.347-0.853-2.257-0.005-0.768 0.203-1.434 0.625-1.997 0.427-0.568 1.021-1.006 1.778-1.315 0.762-0.314 1.642-0.471 2.638-0.471 1.461 0 2.61 0.311 3.449 0.933 0.845 0.622 1.367 1.464 1.567 2.524z"></path>
</symbol>
<symbol id="icon-question" viewBox="0 0 19 32">
<path fill="#fbfbfb" style="fill: var(--color1, #fbfbfb)" d="M4.706 10c0-2.206 1.688-4 3.765-4h1.882c2.076 0 3.765 1.794 3.765 4v0.225c0 1.363-0.653 2.631-1.729 3.362l-2.482 1.694c-0.729 0.498-1.328 1.182-1.744 1.99s-0.633 1.714-0.633 2.635v0.094c0 1.106 0.841 2 1.882 2s1.882-0.894 1.882-2v-0.088c0-0.512 0.247-0.987 0.647-1.262l2.482-1.694c2.153-1.475 3.459-4.006 3.459-6.731v-0.225c0-4.419-3.371-8-7.529-8h-1.882c-4.159 0-7.529 3.581-7.529 8 0 1.106 0.841 2 1.882 2s1.882-0.894 1.882-2zM9.412 30c0.624 0 1.223-0.263 1.664-0.732s0.689-1.105 0.689-1.768c0-0.663-0.248-1.299-0.689-1.768s-1.040-0.732-1.664-0.732-1.223 0.263-1.664 0.732c-0.441 0.469-0.689 1.105-0.689 1.768s0.248 1.299 0.689 1.768 1.040 0.732 1.664 0.732z"></path>
</symbol>
<symbol id="icon-mdi_users" viewBox="0 0 32 32">
<path fill="#fbfbfb" style="fill: var(--color1, #fbfbfb)" d="M18.266 21.752l-0.548 2.044-14.306-3.833 0.548-2.044c0 0 1.095-4.087 8.248-2.171s6.058 6.004 6.058 6.004zM17.291 11.086c0.189-0.707 0.165-1.455-0.070-2.149s-0.671-1.302-1.252-1.747c-0.581-0.446-1.281-0.709-2.012-0.757s-1.459 0.122-2.093 0.488c-0.634 0.366-1.146 0.912-1.469 1.569s-0.446 1.395-0.35 2.121c0.096 0.726 0.404 1.407 0.887 1.958s1.118 0.946 1.825 1.135c0.949 0.254 1.959 0.121 2.81-0.37s1.471-1.3 1.725-2.248zM19.3 17.648c0.498 0.654 0.846 1.41 1.021 2.214s0.171 1.636-0.011 2.438l-0.548 2.044 4.087 1.095 0.548-2.044c0 0 0.994-3.709-5.097-5.747zM20.804 8.194c-0.702-0.192-1.447-0.166-2.134 0.074 0.388 1.034 0.443 2.163 0.158 3.229s-0.898 2.017-1.751 2.718c0.475 0.552 1.106 0.947 1.811 1.131 0.948 0.254 1.959 0.121 2.81-0.37s1.471-1.3 1.725-2.248c0.254-0.949 0.121-1.959-0.37-2.81s-1.3-1.471-2.248-1.725z"></path>
</symbol>
<symbol id="icon-fe_check" viewBox="0 0 32 32">
<path d="M8 13.333l-2.667 2.667 8 8 13.333-13.333-2.667-2.667-10.667 10.667-5.333-5.333z"></path>
</symbol>
<symbol id="icon-close" viewBox="0 0 20 20">
<path d="M10 8.586l-7.071-7.071-1.414 1.414 7.071 7.071-7.071 7.071 1.414 1.414 7.071-7.071 7.071 7.071 1.414-1.414-7.071-7.071 7.071-7.071-1.414-1.414-7.071 7.071z"></path>
</symbol>
<symbol id="icon-menu" viewBox="0 0 24 24">
<path d="M3 13h18c0.552 0 1-0.448 1-1s-0.448-1-1-1h-18c-0.552 0-1 0.448-1 1s0.448 1 1 1zM3 7h18c0.552 0 1-0.448 1-1s-0.448-1-1-1h-18c-0.552 0-1 0.448-1 1s0.448 1 1 1zM3 19h18c0.552 0 1-0.448 1-1s-0.448-1-1-1h-18c-0.552 0-1 0.448-1 1s0.448 1 1 1z"></path>
</symbol>
<symbol id="icon-burger" viewBox="0 0 32 32">
<path d="M4 8h24v2H4V8zm0 7h24v2H4v-2zm0 7h24v2H4v-2z" />
</symbol>
<symbol id="icon-x" viewBox="0 0 32 32">
<path stroke-linejoin="round" stroke-linecap="round" stroke-miterlimit="4" stroke-width="2.5" d="M24 8l-16 16"></path>
<path stroke-linejoin="round" stroke-linecap="round" stroke-miterlimit="4" stroke-width="2.5" d="M8 8l16 16"></path>
</symbol>
<symbol id="icon-greenround" viewBox="0 0 32 32">
<path fill="#fbfbfb" style="fill: var(--color1, #fbfbfb)" d="M32 16c0 8.837-7.163 16-16 16s-16-7.163-16-16c0-8.837 7.163-16 16-16s16 7.163 16 16z"></path>
<path fill="#38cd3e" style="fill: var(--color2, #38cd3e)" d="M26.666 16c0 5.891-4.776 10.667-10.667 10.667s-10.667-4.776-10.667-10.667c0-5.891 4.776-10.667 10.667-10.667s10.667 4.776 10.667 10.667z"></path>
</symbol>
<symbol id="icon-clock" viewBox="0 0 32 32">
<path stroke-linejoin="round" stroke-linecap="round" stroke-miterlimit="4" stroke-width="2.4" d="M16 29.333c7.364 0 13.333-5.969 13.333-13.333s-5.97-13.333-13.333-13.333c-7.364 0-13.333 5.97-13.333 13.333s5.97 13.333 13.333 13.333z"></path>
<path stroke-linejoin="round" stroke-linecap="round" stroke-miterlimit="4" stroke-width="2.4" d="M16 8v8l5.333 2.667"></path>
</symbol>
<symbol id="icon-down" viewBox="0 0 32 32">
<path fill="none" stroke="#fbfbfb" style="stroke: var(--color1, #fbfbfb)" stroke-linejoin="round" stroke-linecap="round" stroke-miterlimit="4" stroke-width="3.2" d="M8 20l8-8 8 8"></path>
</symbol>
<symbol id="icon-down-up" viewBox="0 0 32 32">
<path fill="none" stroke="#fbfbfb" style="stroke: var(--color1, #fbfbfb)" stroke-linejoin="round" stroke-linecap="round" stroke-miterlimit="4" stroke-width="3.2" d="M8 12l8 8 8-8"></path>
</symbol>
</defs>
</svg>
